# xmcd CD database file
#
# Track frame offsets:
#	182
#	10372
#	22410
#	33250
#	43587
#	55342
#	66795
#	78132
#	89587
#	100680
#	111465
#	127190
#	138702
#	148597
#	161012
#	170300
#
# Disc length: 2439 seconds
#
# Revision: 0
# Processed by: cddbd v1.4PL0 Copyright (c) Steve Scherf et al.
# Submitted via: CDex 1.50
#
DISCID=e4098510
DTITLE=Benny Spellman - Golden Classics
DYEAR=1989
DGENRE=Blues
TTITLE0=Fortune Teller
TTITLE1=Stickin' Witcha Baby
TTITLE2=In the Night
TTITLE3=Every Now and Then
TTITLE4=T'Aint It the Truth
TTITLE5=Life is Too Short
TTITLE6=You Don't Love Me No More
TTITLE7=Talk About Love
TTITLE8=I Feel Good
TTITLE9=Lipstick Traces (On a Cigarette)
TTITLE10=I'll Never Leave You
TTITLE11=It's For You
TTITLE12=The Word Game
TTITLE13=You Got to Get It
TTITLE14=Anywhere You Go
TTITLE15=10-4 (Calling All Cars)
EXTD=YEAR: 1989
EXTT0=
EXTT1=
EXTT2=
EXTT3=
EXTT4=
EXTT5=
EXTT6=
EXTT7=
EXTT8=
EXTT9=
EXTT10=
EXTT11=
EXTT12=
EXTT13=
EXTT14=
EXTT15=
PLAYORDER=
